HIERARCHY
ROOT ui
{
	 OFFSET 0 0 0
	 CHANNELS 3 XPosition YPosition Z Position
	 EndSite
	 {
	 OFFSET 0 -1 0
	 }
}
ROOT li
{
	 OFFSET 0 0 0
	 CHANNELS 3 XPosition YPosition Z Position
	 EndSite
	 {
	 OFFSET 0 -1 0
	 }
}
ROOT ul
{
	 OFFSET 0 0 0
	 CHANNELS 3 XPosition YPosition Z Position
	 EndSite
	 {
	 OFFSET 0 -1 0
	 }
}
ROOT ll
{
	 OFFSET 0 0 0
	 CHANNELS 3 XPosition YPosition Z Position
	 EndSite
	 {
	 OFFSET 0 -1 0
	 }
}
ROOT tt
{
	 OFFSET 0 0 0
	 CHANNELS 3 XPosition YPosition Z Position
	 EndSite
	 {
	 OFFSET 0 -1 0
	 }
}
ROOT tb
{
	 OFFSET 0 0 0
	 CHANNELS 3 XPosition YPosition Z Position
	 EndSite
	 {
	 OFFSET 0 -1 0
	 }
}
ROOT td
{
	 OFFSET 0 0 0
	 CHANNELS 3 XPosition YPosition Z Position
	 EndSite
	 {
	 OFFSET 0 -1 0
	 }
}
ROOT v
{
	 OFFSET 0 0 0
	 CHANNELS 3 XPosition YPosition Z Position
	 EndSite
	 {
	 OFFSET 0 -1 0
	 }
}
ROOT bn
{
	 OFFSET 0 0 0
	 CHANNELS 3 XPosition YPosition Z Position
	 EndSite
	 {
	 OFFSET 0 -1 0
	 }
}
MOTION
Frames: 32
Frame Time: 0.002
8.680739998817444E-4	5.880500078201294E-4	0		0.5690154418945312	-2.326133544921875	0		-1.0603499755859376	-0.012148013114929199	0		-0.6565961303710938	-2.371971923828125	0		1.6048839111328126	-0.612990966796875	0		3.20020361328125	-0.07539261627197266	0		4.76968798828125	0.130482177734375	0		5.67943994140625	0.12261830902099609	0		-0.29885009765625	5.91044677734375	0		
0.07431587982177734	0.0016317729949951172	0		0.61229833984375	-2.333757080078125	0		-0.9919253540039062	-0.01301763343811035	0		-0.6981929931640625	-2.368578369140625	0		1.578310302734375	-0.6118319702148437	0		3.198550048828125	-0.08256570434570312	0		4.76312109375	0.13032423400878906	0		5.67252880859375	0.10506732177734375	0		-0.30526080322265625	5.91042529296875	0		
-0.012149249076843262	5.327820181846619E-4	0		0.5538480834960937	-2.328196533203125	0		-1.0733680419921876	-0.012145377159118653	0		-0.6598364868164063	-2.38010693359375	0		1.588786865234375	-0.6170986328125	0		3.197251220703125	-0.06973897552490234	0		4.761595703125	0.1231091079711914	0		5.6708447265625	0.11851362609863281	0		-0.2964182434082031	5.92123291015625	0		
0.058585433959960936	-0.0013854130506515503	0		0.549558349609375	-2.326257568359375	0		-1.069629150390625	-0.013254364013671876	0		-0.6990903930664063	-2.374727294921875	0		1.5655806884765624	-0.6119674682617188	0		3.18990771484375	-0.07783761596679688	0		4.754513671875	0.1369656982421875	0		5.66638525390625	0.11820712280273438	0		-0.2684353332519531	5.92682275390625	0		
0.059685062408447266	0.005512280941009522	0		0.5475714111328125	-2.321338134765625	0		-1.0065690307617188	-0.010049031257629395	0		-0.670174072265625	-2.378134765625	0		1.5595823974609375	-0.6120286865234374	0		3.197051513671875	-0.06709561157226562	0		4.74445458984375	0.12986459350585938	0		5.66852587890625	0.11599974060058593	0		-0.3073346252441406	5.92019677734375	0		
0.049981773376464846	0.0015427919626235962	0		0.5377943725585937	-2.326320556640625	0		-1.0912559814453124	-0.012113142013549804	0		-0.7227860107421875	-2.3685830078125	0		1.5539091796875	-0.6120852661132813	0		3.17826513671875	-0.07804305267333984	0		4.7288134765625	0.13083998107910155	0		5.6538818359375	0.13504800415039062	0		-0.3289494934082031	5.9103779296875	0		
0.04469417953491211	0.0015294300317764283	0		0.5304229736328125	-2.328322998046875	0		-1.0965439453125	-0.01209683609008789	0		-0.7030783081054688	-2.36386962890625	0		1.5655458984375	-0.6173366088867187	0		3.16399951171875	-0.07603240203857421	0		4.73351708984375	0.12958786010742188	0		5.6513828125	0.10359815216064452	0		-0.33408349609375	5.91037451171875	0		
0.03677285003662109	-0.0014467209577560425	0		0.525477783203125	-2.328346923828125	0		-1.1014305419921875	-0.012079575538635253	0		-0.725211181640625	-2.379661376953125	0		1.543703857421875	-0.6121873168945312	0		3.164028564453125	-0.08318109893798828	0		4.72355224609375	0.12251692199707032	0		5.6508134765625	0.11709432220458985	0		-0.3217158813476563	5.919171875	0		
0.04028444671630859	-0.0035519649982452394	0		0.5229797973632813	-2.326393798828125	0		-1.0959075927734374	-0.013180513381958008	0		-0.7276986083984375	-2.376677734375	0		1.5392244873046874	-0.6122355346679688	0		3.19480712890625	-0.06268239974975585	0		4.73316015625	0.12822557067871093	0		5.65695751953125	0.12868470764160156	0		-0.3260349731445312	5.91916943359375	0		
0.04029962921142578	3.8820499181747435E-4	0		0.52498681640625	-2.318489013671875	0		-1.099939453125	-0.013165888786315917	0		-0.7277398681640626	-2.37271923828125	0		1.541260498046875	-0.605354736328125	0		3.154670166015625	-0.0713445816040039	0		4.71623876953125	0.13725433349609376	0		5.644748046875	0.11659176635742187	0		-0.3470308837890625	5.9103671875	0		
0.027713932037353516	0.0014801570177078247	0		0.5412156982421875	-2.32875	0		-1.0385306396484375	-0.0129220552444458	0		-0.7453444213867187	-2.36855078125	0		1.5315660400390625	-0.612332275390625	0		3.161998779296875	-0.07756020355224609	0		4.71857275390625	0.13106181335449218	0		5.63925927734375	0.10258979034423828	0		-0.3495047607421875	5.909349609375	0		
0.026446229934692384	-0.006559600830078125	0		0.5099927978515625	-2.32844677734375	0		-1.1166986083984376	-0.012027027130126954	0		-0.7506055297851563	-2.3715263671875	0		1.545319091796875	-0.6175833740234375	0		3.14875390625	-0.08352798461914063	0		4.70829638671875	0.12202399444580078	0		5.6369921875	0.10234777069091797	0		-0.35353387451171875	5.910353515625	0		
0.018742189407348633	-0.0015202039480209351	0		0.5071791076660156	-2.3284765625	0		-1.1135220947265625	-0.017092769622802734	0		-0.753420166015625	-2.371529052734375	0		1.525602783203125	-0.6124343872070312	0		3.165141357421875	-0.07084102630615234	0		4.71553466796875	0.12178502655029297	0		5.63793896484375	0.11586521911621094	0		-0.34005267333984374	5.9201513671875	0		
0.016365737915039064	-0.0015422199964523315	0		0.4897081298828125	-2.332330322265625	0		-1.11589892578125	-0.01709140968322754	0		-0.7439058227539063	-2.376677490234375	0		1.5232137451171874	-0.6124874877929688	0		3.14766943359375	-0.07874922943115234	0		4.702328125	0.13579574584960938	0		5.63624169921875	0.11562962341308594	0		-0.35743649291992186	5.90931591796875	0		
0.021431793212890626	0.005350244045257568	0		0.5067514343261719	-2.323590087890625	0		-1.1198087158203125	-0.008069775581359863	0		-0.7538495483398437	-2.366591796875	0		1.524220458984375	-0.6095767211914063	0		3.169720947265625	-0.07312041473388672	0		4.711146484375	0.1215501708984375	0		5.63480029296875	0.11540088653564454	0		-0.3593373107910156	5.90929931640625	0		
0.015695344924926757	0.0013734439611434936	0		0.50298388671875	-2.326599609375	0		-1.11960546875	-0.017096719741821288	0		-0.7226442260742187	-2.3719951171875	0		1.53947119140625	-0.6138314819335937	0		3.143960693359375	-0.07891666412353515	0		4.70454345703125	0.1284981689453125	0		5.6464228515625	0.11308110809326172	0		-0.3268485717773438	5.9148759765625	0		
0.011261543273925782	-0.0016157059669494628	0		0.5514588623046875	-2.3342294921875	0		-1.05194921875	-0.012926435470581055	0		-0.76310400390625	-2.373542236328125	0		1.518075927734375	-0.6126439819335937	0		3.13358544921875	-0.07688793182373047	0		4.7031474609375	0.12839300537109374	0		5.628400390625	0.13239810180664063	0		-0.32913388061523435	5.91586865234375	0		
-0.06686770629882813	2.789210081100464E-4	0		0.4983389892578125	-2.328642333984375	0		-1.1280906982421874	-0.012038943290710449	0		-0.7293143920898437	-2.3759736328125	0		1.533858642578125	-0.61789599609375	0		3.1463291015625	-0.08612919616699219	0		4.69691943359375	0.12135402679443359	0		5.6317744140625	0.11478099060058594	0		-0.3481385498046875	5.9200634765625	0		
0.009181998252868652	-0.0016671979427337646	0		0.4993961486816406	-2.326699462890625	0		-1.123083984375	-0.017119802474975587	0		-0.7512921142578125	-2.376737548828125	0		1.5190135498046875	-0.609777099609375	0		3.17166845703125	-0.06351339721679687	0		4.6992275390625	0.1412227478027344	0		5.633306640625	0.12664430236816407	0		-0.34799749755859377	5.91903076171875	0		
0.02045284652709961	1.6279099881649016E-4	0		0.5026719970703125	-2.321780517578125	0		-1.119788818359375	-0.013178771018981933	0		-0.7150911865234375	-2.378196533203125	0		1.5382396240234375	-0.611063232421875	0		3.139725830078125	-0.07920987701416016	0		4.7003212890625	0.12811001586914061	0		5.63056884765625	0.11442240142822266	0		-0.3998335571289062	5.90562109375	0		
0.010862293243408204	0.001244552969932556	0		0.4979795227050781	-2.326764404296875	0		-1.13037939453125	-0.012070476531982422	0		-0.7646492919921875	-2.3716259765625	0		1.5146063232421876	-0.6128327026367187	0		3.130146240234375	-0.07716796875	0		4.6997197265625	0.12802424621582031	0		5.62721533203125	0.1004994888305664	0		-0.3653159790039063	5.9091806640625	0		
-0.0666069564819336	0.003143296003341675	0		0.49544113159179687	-2.328771484375	0		-1.130866455078125	-0.012082382202148438	0		-0.7322147216796875	-2.3760380859375	0		1.531051025390625	-0.618079833984375	0		3.13457421875	-0.08429013061523437	0		4.69616259765625	0.1219793472290039	0		5.62686669921875	0.10034157562255859	0		-0.331662841796875	5.9147509765625	0		
0.011877699851989746	-0.006829286098480224	0		0.49501416015625	-2.3288017578125	0		-1.13126806640625	-0.01209480857849121	0		-0.7597363891601563	-2.38372998046875	0		1.5137039794921876	-0.6129174194335938	0		3.124340576171875	-0.07023000335693359	0		4.6929189453125	0.1349384002685547	0		5.62950048828125	0.11395004272460937	0		-0.3509383544921875	5.91995751953125	0		
-0.07038605499267578	1.321839988231659E-4	0		0.49667340087890627	-2.326854736328125	0		-1.1256705322265625	-0.017179489135742188	0		-0.7560537719726562	-2.379794921875	0		1.513356201171875	-0.612956298828125	0		3.137888916015625	-0.07945241546630859	0		4.7084931640625	0.1276763687133789	0		5.635666015625	0.11189724731445312	0		-0.351221923828125	5.91993701171875	0		
0.013379687309265137	0.005098814010620117	0		0.5004126892089844	-2.321930419921875	0		-1.127862548828125	-0.008169025421142577	0		-0.7543388671875	-2.376835205078125	0		1.51608642578125	-0.6100285034179688	0		3.13267236328125	-0.07244276428222657	0		4.692279296875	0.1348047332763672	0		5.6290400390625	0.11369176483154297	0		-0.36660214233398436	5.9090986328125	0		
-0.06296939086914062	-0.0010065449476242066	0		0.49606497192382815	-2.326906494140625	0		-1.057186279296875	-0.01303604507446289	0		-0.723713623046875	-2.384223388671875	0		1.5127755126953124	-0.6130244750976562	0		3.1523037109375	-0.08072744750976563	0		4.70792431640625	0.12755641174316407	0		5.6352822265625	0.11685585021972657	0		-0.3337461242675781	5.9156826171875	0		
0.008816663742065429	0.001107437014579773	0		0.49580538940429686	-2.326928466796875	0		-1.13242578125	-0.012144596099853515	0		-0.770873779296875	-2.375671875	0		1.52946533203125	-0.6182572631835938	0		3.12809619140625	-0.07747726440429688	0		4.69259716796875	0.12068904876708984	0		5.62867041015625	0.11349048614501953	0		-0.3670354919433594	5.90906396484375	0		
0.005562336921691895	-0.0018729569911956788	0		0.5195250854492187	-2.331236572265625	0		-1.132644287109375	-0.0121555118560791	0		-0.7282520751953125	-2.388201904296875	0		1.50925732421875	-0.6170408935546875	0		3.14176806640625	-0.08667811584472657	0		4.69237939453125	0.12064826202392578	0		5.62851416015625	0.11341242218017578	0		-0.3511042175292969	5.91885595703125	0		
0.013349040031433106	-0.003983908891677856	0		0.4783062133789063	-2.3327587890625	0		-1.122845703125	-0.013286171913146972	0		-0.74947265625	-2.38996044921875	0		1.5121142578125	-0.613097900390625	0		3.13886865234375	-0.06267067718505859	0		4.69933544921875	0.1325299072265625	0		5.63057958984375	0.12539598083496092	0		-0.35126953125	5.9188427734375	0		
0.012301048278808594	0.0050152587890625	0		0.5252483520507812	-2.32433984375	0		-1.048019775390625	-0.015199655532836915	0		-0.720517333984375	-2.380321044921875	0		1.5180399169921874	-0.6061870727539063	0		3.136507080078125	-0.07966613006591797	0		4.70321533203125	0.13545637512207032	0		5.628267578125	0.11330208587646484	0		-0.35239773559570314	5.91984326171875	0		
0.008128105163574218	0.0010544689893722534	0		0.4950857238769531	-2.32698779296875	0		-1.133114501953125	-0.012182319641113281	0		-0.7267179565429688	-2.38625634765625	0		1.5318165283203125	-0.6143670043945313	0		3.131466796875	-0.07262050628662109	0		4.68700732421875	0.12863323974609375	0		5.62525634765625	0.09951556396484375	0		-0.3676451416015625	5.90901611328125	0		
0.012970805168151855	-0.004011610984802246	0		0.518938232421875	-2.331283447265625	0		-1.133211181640625	-0.012188044548034668	0		-0.763812744140625	-2.38581591796875	0		1.511733154296875	-0.613132568359375	0		3.132225341796875	-0.08463896942138673	0		4.69689794921875	0.12750486755371093	0		5.62099462890625	0.11692543029785156	0		-0.3346575927734375	5.91561181640625	0		
